<svg width="800" height="600" viewBox="0 0 800 600" fill="none" xmlns="http://www.w3.org/2000/svg">
  <rect width="800" height="600" fill="#F3F4F6"/>
  <path d="M400 200C400 200 300 300 200 300C100 300 100 200 100 200C100 200 200 100 300 100C400 100 400 200 400 200Z" fill="#3B82F6" fill-opacity="0.2"/>
  <path d="M600 400C600 400 500 500 400 500C300 500 300 400 300 400C300 400 400 300 500 300C600 300 600 400 600 400Z" fill="#3B82F6" fill-opacity="0.2"/>
  <circle cx="400" cy="300" r="150" fill="#3B82F6" fill-opacity="0.1"/>
  <text x="400" y="300" text-anchor="middle" dominant-baseline="middle" font-family="Arial" font-size="24" fill="#1F2937">Hero Image Placeholder</text>
</svg> 